<svg xmlns="http://www.w3.org/2000/svg" xmlns:xlink="http://www.w3.org/1999/xlink" id="Layer_1" x="0" y="0" version="1.1" viewBox="0 0 30 30" xml:space="preserve" style="enable-background:new 0 0 30 30"><style type="text/css">.st0{fill:#c3d2dc}</style><polygon points="18.4 5 16.4 5 14.4 5 14.4 7 12.4 7 12.4 9 12.4 11 12.4 13 10.4 13 10.4 15 10.4 17 12.4 17 12.4 19 12.4 21 12.4 23 12.4 25 14.4 25 16.4 25 16.4 23 16.4 21 16.4 19 16.4 17 18.4 17 20.4 17 20.4 15 20.4 13 18.4 13 16.4 13 16.4 11 16.4 9 18.4 9 20.4 9 20.4 7 20.4 5" class="st0"/></svg>