<svg xmlns="http://www.w3.org/2000/svg" xmlns:xlink="http://www.w3.org/1999/xlink" id="Layer_1" x="0" y="0" version="1.1" viewBox="0 0 30 30" xml:space="preserve" style="enable-background:new 0 0 30 30"><style type="text/css">.st0{fill:#c3d2dc}</style><g><polygon points="6.4 5.3 6.4 7.3 6.4 9.3 8.4 9.3 10.4 9.3 10.4 7.3 10.4 5.3 8.4 5.3" class="st0"/><polygon points="6.4 11.3 6.4 13.3 6.4 15.3 6.4 17.3 6.4 19.3 6.4 21.3 6.4 23.3 6.4 25.3 8.4 25.3 10.4 25.3 10.4 23.3 10.4 21.3 10.4 19.3 10.4 17.3 10.4 15.3 10.4 13.3 10.4 11.3 8.4 11.3" class="st0"/><polygon points="22.4 15.3 22.4 13.3 20.4 13.3 18.4 13.3 16.4 13.3 16.4 11.3 14.4 11.3 12.4 11.3 12.4 13.3 12.4 15.3 12.4 17.3 12.4 19.3 12.4 21.3 12.4 23.3 12.4 25.3 14.4 25.3 16.4 25.3 16.4 23.3 16.4 21.3 16.4 19.3 16.4 17.3 18.4 17.3 20.4 17.3 20.4 19.3 20.4 21.3 20.4 23.3 20.4 25.3 22.4 25.3 24.4 25.3 24.4 23.3 24.4 21.3 24.4 19.3 24.4 17.3 24.4 15.3" class="st0"/></g></svg>