<svg xmlns="http://www.w3.org/2000/svg" xmlns:xlink="http://www.w3.org/1999/xlink" id="Layer_1" x="0" y="0" version="1.1" viewBox="0 0 30 30" xml:space="preserve" style="enable-background:new 0 0 30 30"><style type="text/css">.st0{fill:#234b5f}</style><g><polygon points="16.5 22.4 14.5 22.4 14.5 24.4 12.5 24.4 12.5 26.4 14.5 26.4 14.5 28.4 16.5 28.4 16.5 26.4 18.5 26.4 18.5 24.4 16.5 24.4" class="st0"/><polygon points="16.5 4.4 16.5 2.4 14.5 2.4 14.5 4.4 12.5 4.4 12.5 6.4 12.5 8.4 12.5 10.4 12.5 12.4 12.5 14.4 12.5 16.4 12.5 18.4 14.5 18.4 14.5 20.4 16.5 20.4 16.5 18.4 18.5 18.4 18.5 16.4 18.5 14.4 18.5 12.4 18.5 10.4 18.5 8.4 18.5 6.4 18.5 4.4" class="st0"/></g></svg>