<svg xmlns="http://www.w3.org/2000/svg" xmlns:xlink="http://www.w3.org/1999/xlink" id="Layer_1" x="0" y="0" version="1.1" viewBox="0 0 30 30" xml:space="preserve" style="enable-background:new 0 0 30 30"><style type="text/css">.st0{fill:#19364d}</style><g><polygon points="13.4 6.2 15.4 6.2 17.4 6.2 17.4 4.2 15.4 4.2 13.4 4.2 11.4 4.2 9.4 4.2 9.4 6.2 11.4 6.2" class="st0"/><polygon points="15.4 20.2 13.4 20.2 11.4 20.2 11.4 22.2 13.4 22.2 15.4 22.2 17.4 22.2 19.4 22.2 19.4 20.2 17.4 20.2" class="st0"/><polygon points="15.4 16.2 13.4 16.2 11.4 16.2 11.4 18.2 13.4 18.2 15.4 18.2 17.4 18.2 19.4 18.2 19.4 16.2 17.4 16.2" class="st0"/><polygon points="17.4 24.2 15.4 24.2 13.4 24.2 11.4 24.2 9.4 24.2 9.4 26.2 11.4 26.2 13.4 26.2 15.4 26.2 17.4 26.2 19.4 26.2 21.4 26.2 21.4 24.2 19.4 24.2" class="st0"/><rect width="2" height="2" x="17.4" y="6.2" class="st0"/><rect width="2" height="2" x="19.4" y="8.2" class="st0"/><polygon points="21.4 10.2 21.4 12.2 21.4 14.2 21.4 16.2 21.4 18.2 21.4 20.2 21.4 22.2 21.4 24.2 23.4 24.2 23.4 22.2 23.4 20.2 23.4 18.2 23.4 16.2 23.4 14.2 23.4 12.2 23.4 10.2" class="st0"/><polygon points="9.4 20.2 9.4 18.2 9.4 16.2 9.4 14.2 9.4 12.2 9.4 10.2 9.4 8.2 9.4 6.2 7.4 6.2 7.4 8.2 7.4 10.2 7.4 12.2 7.4 14.2 7.4 16.2 7.4 18.2 7.4 20.2 7.4 22.2 7.4 24.2 9.4 24.2 9.4 22.2" class="st0"/></g></svg>