<svg xmlns="http://www.w3.org/2000/svg" xmlns:xlink="http://www.w3.org/1999/xlink" id="Layer_1" x="0" y="0" version="1.1" viewBox="0 0 30 30" xml:space="preserve" style="enable-background:new 0 0 30 30"><style type="text/css">.st0{fill:#19364d}</style><g><polygon points="13.8 17 13.8 19 15.8 19 15.8 17 17.8 17 17.8 15 15.8 15 15.8 13 15.8 11 15.8 9 15.8 7 13.8 7 13.8 9 13.8 11 13.8 13 13.8 15 11.8 15 11.8 17" class="st0"/><rect width="2" height="2" x="9.8" y="13" class="st0"/><rect width="2" height="2" x="17.8" y="13" class="st0"/><polygon points="17.8 21 15.8 21 13.8 21 11.8 21 9.8 21 7.8 21 7.8 23 9.8 23 11.8 23 13.8 23 15.8 23 17.8 23 19.8 23 21.8 23 21.8 21 19.8 21" class="st0"/><polygon points="7.8 17 5.8 17 5.8 19 5.8 21 7.8 21 7.8 19" class="st0"/><polygon points="21.8 17 21.8 19 21.8 21 23.8 21 23.8 19 23.8 17" class="st0"/></g></svg>