<svg xmlns="http://www.w3.org/2000/svg" xmlns:xlink="http://www.w3.org/1999/xlink" id="Layer_1" x="0" y="0" version="1.1" viewBox="0 0 30 30" xml:space="preserve" style="enable-background:new 0 0 30 30"><style type="text/css">.st0{fill:#19364d}</style><g><polygon points="8 11 10 11 10 9 12 9 14 9 16 9 18 9 20 9 20 11 22 11 22 9 24 9 24 7 22 7 20 7 18 7 16 7 14 7 12 7 10 7 8 7 6 7 6 9 8 9" class="st0"/><rect width="2" height="2" x="10" y="11" class="st0"/><rect width="2" height="2" x="12" y="13" class="st0"/><rect width="2" height="2" x="14" y="15" class="st0"/><rect width="2" height="2" x="16" y="13" class="st0"/><rect width="2" height="2" x="18" y="11" class="st0"/><polygon points="20 21 18 21 16 21 14 21 12 21 10 21 8 21 6 21 6 23 8 23 10 23 12 23 14 23 16 23 18 23 20 23 22 23 24 23 24 21 22 21" class="st0"/><polygon points="24 9 24 11 24 13 24 15 24 17 24 19 24 21 26 21 26 19 26 17 26 15 26 13 26 11 26 9" class="st0"/><polygon points="6 17 6 15 6 13 6 11 6 9 4 9 4 11 4 13 4 15 4 17 4 19 4 21 6 21 6 19" class="st0"/></g></svg>