<svg xmlns="http://www.w3.org/2000/svg" xmlns:xlink="http://www.w3.org/1999/xlink" id="Layer_1" x="0" y="0" version="1.1" viewBox="0 0 30 30" xml:space="preserve" style="enable-background:new 0 0 30 30"><style type="text/css">.st0{fill:#fff}</style><g><g><rect width="2" height="2" x="10" y=".1" class="st0"/><path d="M28,24.1V24l0,0v-1.9h-2v-2h-2v-2h2v-2h-2l0,0h-2V16v-1.9h-1.6H18v-2h-2V12v-2V8.1h-2V8V6.1h-2v-2h-2v-2H8v2 H6l0,0H4v2H2v2H0V10v2v2v2.1h2V18v2.1h2V22l0,0v2.1h2h2v2h2v2h2v-2h2h2v2h2V26v-1.9h2h2v2h2v2h1.9H26v2h2v-2h2V26l0,0v-1.9H28z M4,8h2v2H4V8z M8,14v2.1H6v-2v-2h2V14z M12,10h-2V8h2V10z" class="st0"/></g><rect width="2" height="2" x="8" y="28" class="st0"/><rect width="2" height="2" x="14" y="28" class="st0"/></g></svg>