<svg xmlns="http://www.w3.org/2000/svg" xmlns:xlink="http://www.w3.org/1999/xlink" id="Layer_1" x="0" y="0" version="1.1" viewBox="0 0 30 30" xml:space="preserve" style="enable-background:new 0 0 30 30"><style type="text/css">.st0{fill:#fff}</style><g><rect width="2" height="2" x="8.4" y="6.9" class="st0"/><path d="M24.4,14.9v-2h-2v-2h-2v-2h-2v2h-2h-2h-2v-2h-2v2h-2v2h-2v2h-2v2v2v2h2v-2v-2h2v2v2h2v-2h2h2h2h2h2v2h2v-2v-2 h2v2v2h2v-2v-2v-2H24.4z M20.4,12.9v2h-2v-2H20.4z M12.4,12.9v2h-2v-2H12.4z" class="st0"/><rect width="2" height="2" x="20.4" y="6.9" class="st0"/><polygon points="12.4 22.9 14.4 22.9 14.4 20.9 12.4 20.9 10.4 20.9 10.4 22.9" class="st0"/><polygon points="16.4 20.9 16.4 22.9 18.4 22.9 20.4 22.9 20.4 20.9 18.4 20.9" class="st0"/></g></svg>