<svg xmlns="http://www.w3.org/2000/svg" xmlns:xlink="http://www.w3.org/1999/xlink" id="Layer_1" x="0" y="0" version="1.1" viewBox="0 0 30 30" xml:space="preserve" style="enable-background:new 0 0 30 30"><style type="text/css">.st0{fill:#fff}</style><g><polygon points="8.4 14.3 8.4 16.3 8.4 18.3 8.4 20.3 10.4 20.3 12.4 20.3 14.4 20.3 14.4 18.3 14.4 16.3 12.4 16.3 12.4 14.3 10.4 14.3 10.4 12.3 8.4 12.3" class="st0"/><polygon points="10.4 10.3 10.4 12.3 12.4 12.3 14.4 12.3 14.4 10.3 12.4 10.3" class="st0"/><polygon points="16.4 12.3 16.4 14.3 16.4 16.3 16.4 18.3 16.4 20.3 18.4 20.3 20.4 20.3 22.4 20.3 22.4 18.3 22.4 16.3 20.4 16.3 20.4 14.3 18.4 14.3 18.4 12.3" class="st0"/><polygon points="22.4 12.3 22.4 10.3 20.4 10.3 18.4 10.3 18.4 12.3 20.4 12.3" class="st0"/></g></svg>