<svg xmlns="http://www.w3.org/2000/svg" xmlns:xlink="http://www.w3.org/1999/xlink" id="Layer_1" x="0" y="0" version="1.1" viewBox="0 0 30 30" xml:space="preserve" style="enable-background:new 0 0 30 30"><style type="text/css">.st0{fill:#fff}</style><g><polygon points="8.4 20.5 8.4 22.5 10.4 22.5 10.4 20.5 10.4 18.5 8.4 18.5" class="st0"/><polygon points="10.4 16.5 10.4 18.5 12.4 18.5 12.4 16.5 12.4 14.5 10.4 14.5" class="st0"/><polygon points="14.4 12.5 14.4 10.5 12.4 10.5 12.4 12.5 12.4 14.5 14.4 14.5" class="st0"/><polygon points="16.4 8.5 16.4 6.5 14.4 6.5 14.4 8.5 14.4 10.5 16.4 10.5" class="st0"/><polygon points="14.4 20.5 14.4 22.5 16.4 22.5 16.4 20.5 16.4 18.5 14.4 18.5" class="st0"/><polygon points="16.4 16.5 16.4 18.5 18.4 18.5 18.4 16.5 18.4 14.5 16.4 14.5" class="st0"/><polygon points="18.4 12.5 18.4 14.5 20.4 14.5 20.4 12.5 20.4 10.5 18.4 10.5" class="st0"/><polygon points="20.4 6.5 20.4 8.5 20.4 10.5 22.4 10.5 22.4 8.5 22.4 6.5" class="st0"/></g></svg>