<svg xmlns="http://www.w3.org/2000/svg" xmlns:xlink="http://www.w3.org/1999/xlink" id="Layer_1" x="0" y="0" version="1.1" viewBox="0 0 60 30" xml:space="preserve" style="enable-background:new 0 0 60 30"><style type="text/css">.st0{fill:#fff}</style><path d="M52.5,11.3v-2h-2v-2h-2h-2h-1v-2h-2v2h-1v2h-2v2v2h-2v-2h-2v-2v-2v-2h-2v2h-2h-2h-2h-2h-2v-2h-2v2v2v2h-2v2h-2	v-2l0,0v-2h-2V7.9V7.3v-2h-2v2h-2h-2h-2v2h-2v2h-2v2v2v2v2h2v-2h2v-2h2h2v-2h2v2h2h2v2h2v2v2h2v2h2v2h2h2h2h2h2v-2h2v-2h2v-2v-2h2	v-2h2h2v-2h2v2h2h2v2h2v2h2v-2v-2v-2v-2C54.5,11.3,52.5,11.3,52.5,11.3z M34.5,13.3h-2v-2h2V13.3z M26.5,11.3v2h-2v-2H26.5z M32.5,21.3v2h-2h-2h-2v-2h-2v-2v-2h2v2h2v-2h2v2h2v-2h2v2v2H32.5z" class="st0"/></svg>